<?xml version="1.0" encoding="UTF-8"?>
<!-- Generated by Pixelmator Pro 3.7 -->
<svg width="721" height="129" viewBox="0 0 721 129" xmlns="http://www.w3.org/2000/svg">
    <linearGradient id="linearGradient1" x1="0.034727" y1="64.706151" x2="720.468016" y2="64.706151" gradientUnits="userSpaceOnUse">
        <stop offset="0" stop-color="#fc46a0" stop-opacity="1"/>
        <stop offset="0.319657" stop-color="#fb47a1" stop-opacity="1"/>
        <stop offset="0.503107" stop-color="#06e5fe" stop-opacity="1"/>
        <stop offset="1" stop-color="#04e7ff" stop-opacity="1"/>
    </linearGradient>
    <linearGradient id="linearGradient2" x1="0.034727" y1="64.706151" x2="720.468016" y2="64.706151" gradientUnits="userSpaceOnUse">
        <stop offset="0" stop-color="#f3b0d8" stop-opacity="1"/>
        <stop offset="1" stop-color="#14fcfd" stop-opacity="1"/>
    </linearGradient>
    <path id="Shape-copy-3" fill="url(#linearGradient1)" fill-rule="evenodd" stroke="url(#linearGradient2)" stroke-width="2" stroke-linecap="round" stroke-linejoin="round" d="M 103 75 L 64.156654 75 L 65.842903 68.75 C 67.52916 62.5 67.52916 62.5 93.26458 62.233116 L 119 61.966232 L 119 83.560043 C 119 105.153847 119 105.153847 116.180283 107.973564 C 114.62944 109.524406 110.016945 112.478561 105.930283 114.538353 C 101.843628 116.598145 95.399544 119.339264 91.610107 120.629723 C 87.820663 121.920181 81.133453 123.65641 76.749634 124.488007 C 72.365822 125.319603 66.466278 125.945129 63.639534 125.878059 C 60.81279 125.810989 55.799999 125.384529 52.5 124.930374 C 49.200001 124.476212 44.025002 123.358681 41 122.44696 C 37.974998 121.535248 32.498436 119.224854 28.829861 117.312752 C 24.685764 115.152802 19.851089 111.431992 16.063665 107.487785 C 12.114624 103.375267 8.738534 98.551292 6.47788 93.791 C 4.558529 89.74939 2.323631 83.305527 1.511439 79.471313 C 0.699248 75.637085 0.034727 68.449997 0.034727 63.5 C 0.034727 58.550003 0.699015 51.349998 1.510922 47.5 C 2.322829 43.650002 4.412707 37.574997 6.155097 34 C 8.235469 29.731529 11.64067 25.210037 16.073751 20.829803 C 20.806749 16.153229 25.096621 13.066727 30.426659 10.503082 C 34.607887 8.491989 41.692001 6.093582 46.169132 5.173279 C 51.584404 4.060135 59.027813 3.509987 68.404686 3.529839 C 78.606392 3.551437 84.571754 4.066925 90 5.395958 C 94.125 6.405907 100.3125 8.352837 103.75 9.722458 C 110 12.212677 110 12.212677 110 19.173729 C 110 25.644371 109.861214 26.090729 108.029999 25.509521 C 106.946495 25.165627 103.458992 23.829521 100.279999 22.540398 C 97.100998 21.251274 90.675003 19.364815 86 18.348267 C 80.503502 17.153091 73.613121 16.514732 66.5 16.541702 C 59.638725 16.567719 52.907738 17.224205 48.610226 18.286537 C 44.820854 19.223259 39.324081 21.162109 36.39518 22.595085 C 33.466282 24.028061 29.224701 27.202309 26.969448 29.648972 C 24.714197 32.095627 21.581364 36.820129 20.007595 40.147858 C 18.433826 43.475594 16.594988 49.282677 15.921285 53.052483 C 15.198986 57.094223 14.944231 63.105873 15.300428 67.703346 C 15.63266 71.991501 16.830391 78.493256 17.962053 82.151672 C 19.093716 85.810089 21.477705 90.972794 23.259809 93.624344 C 25.041914 96.275894 28.713627 100.111816 31.419168 102.148621 C 34.12471 104.185432 38.849712 106.821548 41.91917 108.00666 C 44.988625 109.191772 51.469906 110.67012 56.322018 111.291878 C 63.606777 112.225357 66.743317 112.148933 74.322014 110.85331 C 79.369911 109.990341 87.09874 107.839386 91.497208 106.07341 C 95.895668 104.307426 100.283173 102.14872 101.247208 101.276283 C 102.737282 99.92778 103 97.839668 103 87.345016 L 103 75 Z M 145 122 L 145 5 L 153.5 5 L 162 5 L 162 55.800003 C 162 93.977783 162.298157 106.898163 163.199997 107.800003 C 164.085281 108.685287 173.133331 109 197.699997 109 L 231 109 L 231 115.5 L 231 122 L 188 122 L 145 122 Z M 271 122 L 271 73.160011 L 258.529358 56.058502 C 251.670517 46.652664 240.645523 31.560555 234.029358 22.52047 C 227.413208 13.480377 222 5.840057 222 5.541977 C 222 5.243889 226.612503 5.019554 232.25 5.043457 C 242.5 5.086914 242.5 5.086914 252.083008 18.793457 C 257.353668 26.332054 265.453674 37.984222 270.083008 44.687164 C 274.712341 51.390106 278.845337 56.787491 279.267426 56.681358 C 279.689514 56.575226 287.564514 45.892075 296.767426 32.941017 C 305.970337 19.989967 314.174988 8.384575 315 7.151253 C 316.407562 5.047035 317.097351 4.927071 326.194092 5.20443 L 335.888153 5.5 L 311.444092 38.958382 L 287 72.416756 L 287 97.208374 L 287 122 L 279 122 L 271 122 Z M 356.5 5.001183 C 405.938232 5.000229 419.966522 5.434326 423.200775 6.114586 C 426.115356 6.727608 430.805786 8.308464 433.623993 9.627594 C 436.442169 10.946724 440.819641 13.849556 443.351654 16.078331 C 446.340332 18.709084 449.232727 22.715294 451.59671 27.498489 C 454.966705 34.317253 455.238098 35.534615 455.238098 43.83326 C 455.238098 51.291275 454.814545 53.725334 452.7211 58.29805 C 451.336731 61.321884 448.31958 65.680412 446.016327 67.983681 C 443.713043 70.286942 439.504639 73.248764 436.664276 74.565506 C 433.823914 75.88224 429.024994 77.495613 426 78.150772 C 422.975006 78.805939 409.924988 79.602539 397 79.92099 L 373.5 80.5 L 373.229706 101.25 L 372.959412 122 L 364.979706 122 C 357.691376 122 356.993469 121.826691 356.924744 119.999718 C 356.883362 118.899567 356.770844 92.574829 356.674744 61.500313 L 356.5 5.001183 Z M 477 122 L 477 5 L 485.5 5 L 494 5 L 494 27.300003 C 494 43.311111 494.338409 49.938416 495.200012 50.800003 C 496.083679 51.68367 504.892944 52 528.618225 52 C 546.338257 52 561.548218 51.726852 562.418213 51.393013 C 563.796875 50.863976 564 47.845955 564 27.893013 L 564 5 L 572.5 5 L 581 5 L 581 63.5 L 581 122 L 572.516052 122 L 564.032166 122 L 563.766052 94.75 L 563.5 67.5 L 529.567383 67.236481 C 503.085907 67.030823 495.458618 67.250412 494.832672 68.236481 C 494.391541 68.931412 494.023743 81.3125 494.01532 95.75 L 494 122 L 485.5 122 L 477 122 Z M 610 122.152557 L 610 5 L 640.25 5.017365 C 663.057678 5.030457 672.215149 5.398041 677.471313 6.511436 C 681.305542 7.323631 687.725037 9.546959 691.736877 11.452171 C 695.940369 13.44841 701.363464 17.122025 704.535522 20.122047 C 708.233948 23.619873 711.318604 27.882561 713.937134 33.114227 C 716.080566 37.396713 718.434082 43.510437 719.167175 46.700279 C 719.900208 49.890129 720.485413 56.775002 720.467651 62 C 720.449036 67.459496 719.716431 74.391968 718.745056 78.299576 C 717.81543 82.039337 715.651306 88.040054 713.935791 91.634499 C 711.982666 95.726997 708.470398 100.562904 704.53949 104.571968 C 700.048279 109.15242 696.161926 111.964676 690.881104 114.455452 C 686.821472 116.370201 680.799988 118.706169 677.5 119.646484 C 672.59729 121.043488 665.876404 121.428978 640.75 121.754356 L 610 122.152557 Z M 643 108.864357 C 648.775024 108.919899 657.775024 108.518616 663 107.97261 C 668.224976 107.426605 675.200012 106.068939 678.5 104.955574 C 681.799988 103.842209 686.294983 101.690926 688.48877 100.17495 C 690.682617 98.658974 694.165771 95.186935 696.229126 92.45932 C 698.292419 89.731689 700.915405 84.800003 702.057983 81.5 C 703.2005 78.199997 704.394653 72.005455 704.711609 67.734344 C 705.028625 63.463242 704.769714 56.830833 704.136353 52.995659 C 703.502991 49.160492 701.902283 43.574852 700.579163 40.583122 C 699.256104 37.591393 696.333374 33.147247 694.08429 30.707237 C 691.610596 28.023621 687.577515 25.185989 683.876282 23.524956 C 680.510986 22.014709 674.774597 20.266266 671.128784 19.639526 C 667.482971 19.012787 656.31073 18.5 646.301636 18.5 C 634.808716 18.5 627.711792 18.890854 627.040833 19.560768 C 626.31543 20.285057 626.061157 34.397354 626.239258 64.051117 C 626.5 107.480713 626.5 107.480713 629.5 108.12204 C 631.150024 108.47477 637.224976 108.808815 643 108.864357 Z M 373 66 C 410.218536 66 417.066223 65.612839 421.482452 64.462555 C 424.728912 63.616959 428.877441 62.0028 430.701416 60.875526 C 432.52536 59.748253 435.169037 56.861328 436.576233 54.460129 C 438.040833 51.960953 439.366821 47.829475 439.67749 44.797157 C 439.975983 41.88372 439.701721 37.581589 439.068024 35.23687 C 438.434326 32.892151 436.514893 29.378136 434.802612 27.427956 C 433.090332 25.477776 430.013611 23.02726 427.965454 21.982368 C 425.917297 20.937485 421.374695 19.617393 417.870758 19.048843 C 414.366852 18.480286 404.243744 18.011711 395.375 18.007553 C 386.506256 18.003403 377.84375 18.28125 376.125 18.625 C 373 19.25 373 19.25 373 42.625 L 373 66 Z"/>
</svg>
